<svg xmlns="http://www.w3.org/2000/svg" width="288" height="290" viewBox="0 0 288 290" fill="none"><path d="M111.825 170.466V119.489C111.825 116.361 109.306 113.825 106.2 113.825H55.5749C52.4682 113.825 49.9498 116.361 49.9498 119.489V170.466C49.9498 173.594 52.4682 176.13 55.5749 176.13H106.2C109.306 176.13 111.825 173.594 111.825 170.466Z" fill="#FFD5CC"/><path d="M111.825 248.086V197.109C111.825 193.981 109.306 191.445 106.2 191.445H55.5749C52.4682 191.445 49.9498 193.981 49.9498 197.109V248.086C49.9498 251.215 52.4682 253.75 55.5749 253.75H106.2C109.306 253.75 111.825 251.215 111.825 248.086Z" fill="#FFA199"/><path d="M111.825 92.8907V41.9141C111.825 38.7859 109.306 36.25 106.2 36.25H55.5749C52.4682 36.25 49.9498 38.7859 49.9498 41.9141V92.8907C49.9498 96.0188 52.4682 98.5546 55.5749 98.5546H106.2C109.306 98.5546 111.825 96.0188 111.825 92.8907Z" fill="#FFA199"/><path d="M94.876 58.4792L92.2986 55.8839C91.3673 54.9461 89.8571 54.9461 88.9258 55.8839L72.0294 72.8976C71.0981 73.8354 71.0981 75.356 72.0294 76.2939L74.6068 78.8891C75.5382 79.8269 77.0483 79.8269 77.9797 78.8891L94.876 61.8755C95.8076 60.9377 95.8076 59.417 94.876 58.4792Z" fill="white"/><path d="M78.0062 78.8704L80.5841 76.2754C81.5156 75.3378 81.5159 73.8172 80.5848 72.8791L72.8856 65.1239C71.9545 64.1859 70.4444 64.1857 69.5128 65.1235L66.935 67.7183C66.0034 68.6559 66.0031 70.1765 66.9343 71.1146L74.6334 78.8697C75.5647 79.8078 77.0746 79.808 78.0062 78.8704Z" fill="white"/><path d="M196.785 74.0859L98.28 173.275C95.5765 175.989 93.5556 179.313 92.3848 182.972L81 218.27C80.6874 219.26 80.6512 220.317 80.895 221.326C81.1389 222.335 81.6538 223.257 82.3831 223.992C83.1124 224.726 84.028 225.244 85.0301 225.49C86.0321 225.736 87.0822 225.699 88.0648 225.384L123.12 214.056C126.764 212.896 130.081 210.876 132.795 208.166L231.435 108.75C234.239 105.936 236.258 102.426 237.286 98.5757C238.313 94.725 238.313 90.6694 237.284 86.8188L236.699 84.6438C235.682 80.7823 233.668 77.2605 230.863 74.4355C228.057 71.6104 224.56 69.5827 220.725 68.5579L218.61 68.0141C214.764 66.9933 210.718 67.0174 206.884 68.0841C203.05 69.1507 199.565 71.2217 196.785 74.0859Z" fill="#FF4C4C"/><path d="M220.725 68.7391L218.61 68.1954C214.779 67.1521 210.743 67.1474 206.91 68.1818C203.077 69.2164 199.584 71.2532 196.785 74.0859L172.665 98.3282C175.464 95.4956 178.957 93.4586 182.79 92.4242C186.623 91.3895 190.659 91.3942 194.49 92.4375L196.605 93.0266C200.44 94.0514 203.937 96.0793 206.743 98.9043C209.548 101.729 211.562 105.251 212.58 109.112L213.165 111.242C214.201 115.099 214.206 119.164 213.178 123.024C212.151 126.883 210.128 130.4 207.315 133.219L231.435 108.75C234.239 105.936 236.258 102.426 237.286 98.5757C238.313 94.725 238.313 90.6694 237.284 86.8187L236.699 84.6437C235.654 80.8157 233.628 77.3315 230.825 74.54C228.021 71.7488 224.538 69.7483 220.725 68.7391Z" fill="#FFA199"/><path d="M110.61 195.705C105.376 190.395 99.1103 186.23 92.2048 183.47L81 218.27C80.6874 219.26 80.6512 220.317 80.895 221.326C81.1389 222.335 81.6538 223.257 82.3831 223.992C83.1124 224.726 84.028 225.244 85.0301 225.49C86.0321 225.736 87.0822 225.699 88.0648 225.384L122.67 214.238C119.931 207.305 115.829 201.001 110.61 195.705Z" fill="#FFD5CC"/><path d="M88.2 225.384L95.3552 223.073C92.0348 218.462 88.01 214.409 83.4301 211.066L81 218.27C80.6728 219.274 80.6307 220.35 80.879 221.377C81.1271 222.404 81.6557 223.34 82.4047 224.08C83.1538 224.82 84.0935 225.335 85.1175 225.565C86.1417 225.796 87.2094 225.733 88.2 225.384Z" fill="white"/></svg>