<svg xmlns="http://www.w3.org/2000/svg" width="296" height="296" viewBox="0 0 296 296" fill="none"><path d="M98.3737 225.099H55.5C52.0261 225.099 49.21 227.915 49.21 231.389V252.154C49.21 255.629 52.0261 258.446 55.5 258.446H98.3737C101.848 258.446 104.664 255.629 104.664 252.154V231.389C104.664 227.915 101.848 225.099 98.3737 225.099Z" fill="#FFA199"/><path d="M169.46 225.099H126.586C123.112 225.099 120.296 227.915 120.296 231.389V252.154C120.296 255.629 123.112 258.446 126.586 258.446H169.46C172.934 258.446 175.75 255.629 175.75 252.154V231.389C175.75 227.915 172.934 225.099 169.46 225.099Z" fill="#FFA199"/><path d="M240.5 225.099H197.626C194.152 225.099 191.336 227.915 191.336 231.389V252.154C191.336 255.629 194.152 258.446 197.626 258.446H240.5C243.973 258.446 246.79 255.629 246.79 252.154V231.389C246.79 227.915 243.973 225.099 240.5 225.099Z" fill="#FFA199"/><path d="M224.266 215.802H213.86V208.819C213.86 206.991 213.134 205.238 211.842 203.946C210.549 202.654 208.797 201.927 206.969 201.927H89.0313C87.2038 201.927 85.4509 202.654 84.1586 203.946C82.8662 205.238 82.14 206.991 82.14 208.819V215.802H71.7339V208.819C71.7461 204.235 73.5725 199.842 76.8137 196.601C80.0549 193.36 84.4476 191.533 89.0313 191.521H206.969C211.553 191.533 215.945 193.36 219.187 196.601C222.428 199.842 224.254 204.235 224.266 208.819V215.802Z" fill="#FFD5CC"/><path d="M153.226 173.761H142.82V215.802H153.226V173.761Z" fill="#FFD5CC"/><path d="M199.846 100.316C199.846 98.6513 199.846 96.9863 199.615 95.3676C199.475 94.139 199.628 92.8948 200.062 91.7368C200.496 90.5791 201.199 89.541 202.112 88.7076L205.489 85.6087C206.813 84.4168 207.687 82.8058 207.965 81.046C208.243 79.2862 207.907 77.4844 207.015 75.9426L198.597 61.3737C197.711 59.7977 196.3 58.5827 194.609 57.9403C192.919 57.2982 191.057 57.2693 189.347 57.8587L184.954 59.2463C183.819 59.6132 182.614 59.712 181.435 59.5356C180.255 59.359 179.133 58.9119 178.155 58.2287C175.336 56.2326 172.331 54.5134 169.182 53.095C168.094 52.5892 167.139 51.8368 166.393 50.8974C165.646 49.9581 165.129 48.8579 164.881 47.6837L163.91 43.0587C163.518 41.3569 162.566 39.8356 161.208 38.7376C159.85 37.6393 158.164 37.0277 156.417 37H139.582C137.8 37.0012 136.071 37.6121 134.683 38.7309C133.295 39.8497 132.331 41.4094 131.951 43.1513L130.98 47.7763C130.732 48.9503 130.215 50.0507 129.469 50.9898C128.722 51.9291 127.767 52.6816 126.679 53.1876C123.53 54.606 120.525 56.3252 117.706 58.3213C116.728 59.0043 115.606 59.4516 114.426 59.628C113.247 59.8046 112.042 59.7056 110.907 59.3387L106.514 57.9513C104.804 57.3617 102.942 57.3906 101.252 58.0329C99.5615 58.6753 98.1503 59.8903 97.2637 61.4663L88.8461 76.035C87.9538 77.5771 87.6187 79.3788 87.8965 81.1386C88.1744 82.8984 89.0485 84.5092 90.3724 85.7013L93.7487 88.8C94.662 89.6333 95.3648 90.6717 95.799 91.8295C96.2332 92.9872 96.3865 94.2314 96.2461 95.46C96.2461 97.0787 96.015 98.7437 96.015 100.409C96.015 102.074 96.015 103.693 96.2461 105.311C96.3865 106.547 96.2332 107.798 95.7992 108.963C95.3655 110.128 94.663 111.175 93.7487 112.018L90.3724 115.07C89.0368 116.288 88.1677 117.933 87.9144 119.723C87.6611 121.513 88.0397 123.334 88.985 124.875L97.4024 139.49C98.2957 141.06 99.7074 142.269 101.396 142.91C103.084 143.552 104.942 143.585 106.652 143.005L111 141.618C112.139 141.228 113.355 141.118 114.546 141.294C115.737 141.472 116.868 141.931 117.845 142.635C120.657 144.641 123.663 146.361 126.817 147.769C127.91 148.269 128.868 149.019 129.616 149.96C130.363 150.9 130.878 152.003 131.119 153.18L132.09 157.805C132.461 159.555 133.42 161.126 134.809 162.254C136.198 163.382 137.932 163.999 139.721 164.003H156.556C158.401 163.943 160.166 163.233 161.537 161.997C162.909 160.76 163.798 159.079 164.049 157.25L165.02 152.625C165.26 151.448 165.775 150.345 166.523 149.404C167.27 148.464 168.229 147.714 169.321 147.214C172.476 145.806 175.481 144.086 178.294 142.08C179.281 141.452 180.401 141.062 181.565 140.942C182.729 140.821 183.905 140.974 185 141.386L189.347 142.774C191.058 143.354 192.916 143.321 194.604 142.679C196.292 142.038 197.704 140.828 198.597 139.259L207.015 124.875C207.907 123.333 208.243 121.531 207.965 119.771C207.687 118.012 206.813 116.401 205.489 115.209L202.112 112.156C201.198 111.313 200.496 110.267 200.062 109.102C199.628 107.937 199.475 106.686 199.615 105.45C199.754 103.6 199.846 101.981 199.846 100.316Z" fill="#FFA199"/><path d="M148 118.77C158.192 118.77 166.454 110.508 166.454 100.316C166.454 90.1246 158.192 81.8626 148 81.8626C137.808 81.8626 129.546 90.1246 129.546 100.316C129.546 110.508 137.808 118.77 148 118.77Z" fill="#FF4C4C"/></svg>