<svg xmlns="http://www.w3.org/2000/svg" width="278" height="278" viewBox="0 0 278 278" fill="none"><path d="M56.1212 98.9072C56.1212 101.02 55.4946 103.086 54.3203 104.844C53.1462 106.601 51.4773 107.971 49.5248 108.779C47.5723 109.588 45.4238 109.8 43.3509 109.387C41.278 108.975 39.3742 107.957 37.8797 106.463C36.3852 104.969 35.3676 103.065 34.9553 100.992C34.543 98.9191 34.7547 96.7705 35.5633 94.818C36.3722 92.8655 37.7418 91.1966 39.499 90.0225C41.2563 88.8484 43.3222 88.2215 45.4357 88.2215C48.2695 88.2215 50.9876 89.3474 52.9915 91.3513C54.9953 93.3553 56.1212 96.0732 56.1212 98.9072Z" fill="#FFD5CC"/><path d="M56.1212 125.621C56.1212 127.735 55.4946 129.801 54.3203 131.558C53.1462 133.315 51.4773 134.685 49.5248 135.493C47.5723 136.302 45.4238 136.514 43.3509 136.102C41.278 135.689 39.3742 134.671 37.8797 133.177C36.3852 131.683 35.3676 129.779 34.9553 127.706C34.543 125.633 34.7547 123.484 35.5633 121.532C36.3722 119.579 37.7418 117.911 39.499 116.736C41.2563 115.562 43.3222 114.936 45.4357 114.936C48.2695 114.936 50.9876 116.061 52.9915 118.065C54.9953 120.069 56.1212 122.787 56.1212 125.621Z" fill="#FFD5CC"/><path d="M56.1212 152.379C56.1212 154.492 55.4946 156.558 54.3203 158.315C53.1462 160.073 51.4773 161.442 49.5248 162.251C47.5723 163.06 45.4238 163.271 43.3509 162.859C41.278 162.447 39.3742 161.429 37.8797 159.935C36.3852 158.44 35.3676 156.536 34.9553 154.463C34.543 152.391 34.7547 150.242 35.5633 148.289C36.3722 146.337 37.7418 144.668 39.499 143.494C41.2563 142.32 43.3222 141.693 45.4357 141.693C46.8389 141.693 48.2282 141.969 49.5248 142.506C50.8213 143.044 51.9992 143.831 52.9915 144.823C53.9837 145.815 54.7709 146.993 55.3078 148.289C55.8448 149.586 56.1212 150.976 56.1212 152.379Z" fill="#FFD5CC"/><path d="M56.1212 179.093C56.1212 181.206 55.4946 183.272 54.3203 185.029C53.1462 186.787 51.4773 188.156 49.5248 188.965C47.5723 189.774 45.4238 189.985 43.3509 189.573C41.278 189.161 39.3742 188.143 37.8797 186.649C36.3852 185.154 35.3676 183.25 34.9553 181.178C34.543 179.105 34.7547 176.956 35.5633 175.004C36.3722 173.051 37.7418 171.382 39.499 170.208C41.2563 169.034 43.3222 168.407 45.4357 168.407C48.2695 168.407 50.9876 169.533 52.9915 171.537C54.9953 173.541 56.1212 176.259 56.1212 179.093Z" fill="#FFA199"/><path d="M56.1212 205.807C56.1212 207.92 55.4946 209.986 54.3203 211.743C53.1462 213.501 51.4773 214.87 49.5248 215.679C47.5723 216.488 45.4238 216.699 43.3509 216.287C41.278 215.875 39.3742 214.857 37.8797 213.363C36.3852 211.868 35.3676 209.964 34.9553 207.892C34.543 205.819 34.7547 203.67 35.5633 201.718C36.3722 199.765 37.7418 198.096 39.499 196.922C41.2563 195.748 43.3222 195.121 45.4357 195.121C48.2661 195.133 50.9773 196.262 52.9789 198.264C54.9803 200.265 56.1098 202.976 56.1212 205.807Z" fill="#FFA199"/><path d="M56.1212 232.565C56.1212 234.677 55.4946 236.744 54.3203 238.502C53.1462 240.259 51.4773 241.627 49.5248 242.436C47.5723 243.246 45.4238 243.456 43.3509 243.044C41.278 242.633 39.3742 241.616 37.8797 240.12C36.3852 238.625 35.3676 236.721 34.9553 234.65C34.543 232.576 34.7547 230.428 35.5633 228.476C36.3722 226.523 37.7418 224.853 39.499 223.679C41.2563 222.505 43.3222 221.879 45.4357 221.879C48.2695 221.879 50.9876 223.005 52.9915 225.007C54.9953 227.012 56.1212 229.731 56.1212 232.565Z" fill="#FF4C4C"/><path d="M82.8788 125.621C82.8873 127.747 82.2643 129.827 81.0888 131.598C79.9131 133.369 78.238 134.751 76.2756 135.569C74.3135 136.386 72.1527 136.602 70.0672 136.19C67.982 135.777 66.0663 134.754 64.5633 133.251C63.0601 131.748 62.0375 129.832 61.6248 127.747C61.2123 125.662 61.4284 123.501 62.2458 121.539C63.0632 119.577 64.4451 117.901 66.216 116.726C67.9872 115.55 70.0675 114.927 72.1933 114.936C75.0273 114.936 77.7452 116.061 79.749 118.065C81.7531 120.069 82.8788 122.787 82.8788 125.621Z" fill="#FFD5CC"/><path d="M82.8788 152.379C82.8873 154.504 82.2643 156.585 81.0888 158.356C79.9131 160.127 78.238 161.509 76.2756 162.326C74.3135 163.144 72.1527 163.36 70.0672 162.947C67.982 162.534 66.0663 161.512 64.5633 160.009C63.0601 158.505 62.0375 156.59 61.6248 154.505C61.2123 152.419 61.4284 150.259 62.2458 148.296C63.0632 146.334 64.4451 144.659 66.216 143.483C67.9872 142.308 70.0675 141.684 72.1933 141.693C73.5965 141.693 74.986 141.969 76.2823 142.506C77.5788 143.044 78.7567 143.831 79.749 144.823C80.7413 145.815 81.5284 146.993 82.0654 148.289C82.6023 149.586 82.8788 150.976 82.8788 152.379Z" fill="#FFD5CC"/><path d="M82.8788 179.093C82.8873 181.219 82.2643 183.299 81.0888 185.07C79.9131 186.841 78.238 188.223 76.2756 189.04C74.3135 189.858 72.1527 190.074 70.0672 189.661C67.982 189.249 66.0663 188.226 64.5633 186.723C63.0601 185.22 62.0375 183.304 61.6248 181.219C61.2123 179.133 61.4284 176.973 62.2458 175.01C63.0632 173.048 64.4451 171.373 66.216 170.197C67.9872 169.022 70.0675 168.399 72.1933 168.407C75.0273 168.407 77.7452 169.533 79.749 171.537C81.7531 173.541 82.8788 176.259 82.8788 179.093Z" fill="#FFD5CC"/><path d="M82.8788 205.807C82.8873 207.933 82.2643 210.013 81.0888 211.784C79.9131 213.555 78.238 214.937 76.2756 215.754C74.3135 216.572 72.1527 216.788 70.0672 216.375C67.982 215.963 66.0663 214.94 64.5633 213.437C63.0601 211.934 62.0375 210.018 61.6248 207.933C61.2123 205.848 61.4284 203.687 62.2458 201.724C63.0632 199.762 64.4451 198.087 66.216 196.911C67.9872 195.736 70.0675 195.113 72.1933 195.121C75.0237 195.133 77.7349 196.262 79.7365 198.264C81.7378 200.265 82.8673 202.976 82.8788 205.807Z" fill="#FF4C4C"/><path d="M82.8788 232.565C82.8873 234.69 82.2643 236.771 81.0888 238.542C79.9131 240.313 78.238 241.694 76.2756 242.512C74.3135 243.328 72.1527 243.546 70.0672 243.133C67.982 242.721 66.0663 241.696 64.5633 240.194C63.0601 238.692 62.0375 236.775 61.6248 234.69C61.2123 232.605 61.4284 230.444 62.2458 228.482C63.0632 226.521 64.4451 224.844 66.216 223.669C67.9872 222.493 70.0675 221.87 72.1933 221.879C75.0273 221.879 77.7452 223.005 79.749 225.01C81.7531 227.012 82.8788 229.731 82.8788 232.565Z" fill="#FF4C4C"/><path d="M109.593 152.379C109.593 154.492 108.966 156.558 107.792 158.315C106.618 160.073 104.949 161.442 102.997 162.251C101.044 163.06 98.8954 163.271 96.8227 162.859C94.7498 162.447 92.8457 161.429 91.3515 159.935C89.857 158.44 88.8392 156.536 88.4269 154.463C88.0146 152.391 88.2262 150.242 89.0351 148.289C89.8438 146.337 91.2134 144.668 92.9706 143.494C94.7278 142.32 96.7938 141.693 98.9072 141.693C100.31 141.693 101.7 141.969 102.997 142.506C104.293 143.044 105.471 143.831 106.463 144.823C107.455 145.815 108.242 146.993 108.779 148.289C109.317 149.586 109.593 150.976 109.593 152.379Z" fill="#FFA199"/><path d="M109.593 179.093C109.593 181.206 108.966 183.272 107.792 185.029C106.618 186.787 104.949 188.156 102.997 188.965C101.044 189.774 98.8954 189.985 96.8227 189.573C94.7498 189.161 92.8457 188.143 91.3515 186.649C89.857 185.154 88.8392 183.25 88.4269 181.178C88.0146 179.105 88.2262 176.956 89.0351 175.004C89.8438 173.051 91.2134 171.382 92.9706 170.208C94.7278 169.034 96.7938 168.407 98.9072 168.407C101.741 168.407 104.459 169.533 106.463 171.537C108.467 173.541 109.593 176.259 109.593 179.093Z" fill="#FFA199"/><path d="M109.593 205.807C109.593 207.92 108.966 209.986 107.792 211.743C106.618 213.501 104.949 214.87 102.997 215.679C101.044 216.488 98.8954 216.699 96.8227 216.287C94.7498 215.875 92.8457 214.857 91.3515 213.363C89.857 211.868 88.8392 209.964 88.4269 207.892C88.0146 205.819 88.2262 203.67 89.0351 201.718C89.8438 199.765 91.2134 198.096 92.9706 196.922C94.7278 195.748 96.7938 195.121 98.9072 195.121C101.738 195.133 104.449 196.262 106.45 198.264C108.452 200.265 109.582 202.976 109.593 205.807Z" fill="#FFA199"/><path d="M109.593 232.565C109.593 234.677 108.966 236.744 107.792 238.502C106.618 240.259 104.949 241.627 102.997 242.436C101.044 243.246 98.8954 243.456 96.8227 243.044C94.7498 242.633 92.8457 241.616 91.3515 240.12C89.857 238.625 88.8392 236.721 88.4269 234.65C88.0146 232.576 88.2262 230.428 89.0351 228.476C89.8438 226.523 91.2134 224.853 92.9706 223.679C94.7278 222.505 96.7938 221.879 98.9072 221.879C101.741 221.879 104.459 223.005 106.463 225.007C108.467 227.012 109.593 229.731 109.593 232.565Z" fill="#FF4C4C"/><path d="M136.307 125.621C136.307 127.735 135.68 129.801 134.506 131.558C133.332 133.315 131.663 134.685 129.711 135.493C127.758 136.302 125.61 136.514 123.537 136.102C121.464 135.689 119.56 134.671 118.065 133.177C116.571 131.683 115.553 129.779 115.141 127.706C114.729 125.633 114.94 123.484 115.749 121.532C116.558 119.579 117.928 117.911 119.685 116.736C121.442 115.562 123.508 114.936 125.621 114.936C128.455 114.936 131.173 116.061 133.177 118.065C135.181 120.069 136.307 122.787 136.307 125.621Z" fill="#FFD5CC"/><path d="M136.307 152.379C136.307 154.492 135.68 156.558 134.506 158.315C133.332 160.073 131.663 161.442 129.711 162.251C127.758 163.06 125.61 163.271 123.537 162.859C121.464 162.447 119.56 161.429 118.065 159.935C116.571 158.44 115.553 156.536 115.141 154.463C114.729 152.391 114.94 150.242 115.749 148.289C116.558 146.337 117.928 144.668 119.685 143.494C121.442 142.32 123.508 141.693 125.621 141.693C127.025 141.693 128.414 141.969 129.711 142.506C131.007 143.044 132.185 143.831 133.177 144.823C134.17 145.815 134.957 146.993 135.494 148.289C136.031 149.586 136.307 150.976 136.307 152.379Z" fill="#FFD5CC"/><path d="M136.307 179.093C136.307 181.206 135.68 183.272 134.506 185.029C133.332 186.787 131.663 188.156 129.711 188.965C127.758 189.774 125.61 189.985 123.537 189.573C121.464 189.161 119.56 188.143 118.065 186.649C116.571 185.154 115.553 183.25 115.141 181.178C114.729 179.105 114.94 176.956 115.749 175.004C116.558 173.051 117.928 171.382 119.685 170.208C121.442 169.034 123.508 168.407 125.621 168.407C128.455 168.407 131.173 169.533 133.177 171.537C135.181 173.541 136.307 176.259 136.307 179.093Z" fill="#FFA199"/><path d="M136.307 205.807C136.307 207.92 135.68 209.986 134.506 211.743C133.332 213.501 131.663 214.87 129.711 215.679C127.758 216.488 125.61 216.699 123.537 216.287C121.464 215.875 119.56 214.857 118.065 213.363C116.571 211.868 115.553 209.964 115.141 207.892C114.729 205.819 114.94 203.67 115.749 201.718C116.558 199.765 117.928 198.096 119.685 196.922C121.442 195.748 123.508 195.121 125.621 195.121C128.452 195.133 131.163 196.262 133.165 198.264C135.166 200.265 136.296 202.976 136.307 205.807Z" fill="#FF4C4C"/><path d="M136.307 232.565C136.307 234.677 135.68 236.744 134.506 238.502C133.332 240.259 131.663 241.627 129.711 242.436C127.758 243.246 125.61 243.456 123.537 243.044C121.464 242.633 119.56 241.616 118.065 240.12C116.571 238.625 115.553 236.721 115.141 234.65C114.729 232.576 114.94 230.428 115.749 228.476C116.558 226.523 117.928 224.853 119.685 223.679C121.442 222.505 123.508 221.879 125.621 221.879C128.455 221.879 131.173 223.005 133.177 225.007C135.181 227.012 136.307 229.731 136.307 232.565Z" fill="#FF4C4C"/><path d="M163.064 98.9072C163.064 101.02 162.438 103.086 161.264 104.844C160.089 106.601 158.421 107.971 156.468 108.779C154.515 109.588 152.367 109.8 150.294 109.387C148.221 108.975 146.317 107.957 144.823 106.463C143.329 104.969 142.311 103.065 141.898 100.992C141.486 98.9191 141.698 96.7705 142.506 94.818C143.315 92.8655 144.685 91.1966 146.442 90.0225C148.199 88.8484 150.265 88.2215 152.379 88.2215C155.213 88.2215 157.931 89.3474 159.935 91.3513C161.939 93.3553 163.064 96.0732 163.064 98.9072Z" fill="#FFD5CC"/><path d="M163.064 125.621C163.064 127.735 162.438 129.801 161.264 131.558C160.089 133.315 158.421 134.685 156.468 135.493C154.515 136.302 152.367 136.514 150.294 136.102C148.221 135.689 146.317 134.671 144.823 133.177C143.329 131.683 142.311 129.779 141.898 127.706C141.486 125.633 141.698 123.484 142.506 121.532C143.315 119.579 144.685 117.911 146.442 116.736C148.199 115.562 150.265 114.936 152.379 114.936C155.213 114.936 157.931 116.061 159.935 118.065C161.939 120.069 163.064 122.787 163.064 125.621Z" fill="#FFA199"/><path d="M163.064 152.379C163.064 154.492 162.438 156.558 161.264 158.315C160.089 160.073 158.421 161.442 156.468 162.251C154.515 163.06 152.367 163.271 150.294 162.859C148.221 162.447 146.317 161.429 144.823 159.935C143.329 158.44 142.311 156.536 141.898 154.463C141.486 152.391 141.698 150.242 142.506 148.289C143.315 146.337 144.685 144.668 146.442 143.494C148.199 142.32 150.265 141.693 152.379 141.693C153.782 141.693 155.172 141.969 156.468 142.506C157.764 143.044 158.942 143.831 159.935 144.823C160.927 145.815 161.714 146.993 162.251 148.289C162.788 149.586 163.064 150.976 163.064 152.379Z" fill="#FFA199"/><path d="M163.064 179.093C163.064 181.206 162.438 183.272 161.264 185.029C160.089 186.787 158.421 188.156 156.468 188.965C154.515 189.774 152.367 189.985 150.294 189.573C148.221 189.161 146.317 188.143 144.823 186.649C143.329 185.154 142.311 183.25 141.898 181.178C141.486 179.105 141.698 176.956 142.506 175.004C143.315 173.051 144.685 171.382 146.442 170.208C148.199 169.034 150.265 168.407 152.379 168.407C155.213 168.407 157.931 169.533 159.935 171.537C161.939 173.541 163.064 176.259 163.064 179.093Z" fill="#FFA199"/><path d="M163.064 205.807C163.064 207.92 162.438 209.986 161.264 211.743C160.089 213.501 158.421 214.87 156.468 215.679C154.515 216.488 152.367 216.699 150.294 216.287C148.221 215.875 146.317 214.857 144.823 213.363C143.329 211.868 142.311 209.964 141.898 207.892C141.486 205.819 141.698 203.67 142.506 201.718C143.315 199.765 144.685 198.096 146.442 196.922C148.199 195.748 150.265 195.121 152.379 195.121C155.209 195.133 157.921 196.262 159.922 198.264C161.923 200.265 163.053 202.976 163.064 205.807Z" fill="#FFA199"/><path d="M163.064 232.565C163.064 234.677 162.438 236.744 161.264 238.502C160.089 240.259 158.421 241.627 156.468 242.436C154.515 243.246 152.367 243.456 150.294 243.044C148.221 242.633 146.317 241.616 144.823 240.12C143.329 238.625 142.311 236.721 141.898 234.65C141.486 232.576 141.698 230.428 142.506 228.476C143.315 226.523 144.685 224.853 146.442 223.679C148.199 222.505 150.265 221.879 152.379 221.879C155.213 221.879 157.931 223.005 159.935 225.007C161.939 227.012 163.064 229.731 163.064 232.565Z" fill="#FF4C4C"/><path d="M189.778 125.621C189.778 127.735 189.152 129.801 187.978 131.558C186.803 133.315 185.135 134.685 183.182 135.493C181.23 136.302 179.081 136.514 177.008 136.102C174.935 135.689 173.031 134.671 171.537 133.177C170.042 131.683 169.025 129.779 168.613 127.706C168.2 125.633 168.412 123.484 169.221 121.532C170.029 119.579 171.399 117.911 173.156 116.736C174.914 115.562 176.979 114.936 179.093 114.936C181.927 114.936 184.645 116.061 186.649 118.065C188.653 120.069 189.778 122.787 189.778 125.621Z" fill="#FFD5CC"/><path d="M189.778 152.379C189.778 154.492 189.152 156.558 187.978 158.315C186.803 160.073 185.135 161.442 183.182 162.251C181.23 163.06 179.081 163.271 177.008 162.859C174.935 162.447 173.031 161.429 171.537 159.935C170.042 158.44 169.025 156.536 168.613 154.463C168.2 152.391 168.412 150.242 169.221 148.289C170.029 146.337 171.399 144.668 173.156 143.494C174.914 142.32 176.979 141.693 179.093 141.693C180.496 141.693 181.886 141.969 183.182 142.506C184.479 143.044 185.656 143.831 186.649 144.823C187.641 145.815 188.428 146.993 188.965 148.289C189.502 149.586 189.778 150.976 189.778 152.379Z" fill="#FFA199"/><path d="M189.778 179.093C189.778 181.206 189.152 183.272 187.978 185.029C186.803 186.787 185.135 188.156 183.182 188.965C181.23 189.774 179.081 189.985 177.008 189.573C174.935 189.161 173.031 188.143 171.537 186.649C170.042 185.154 169.025 183.25 168.613 181.178C168.2 179.105 168.412 176.956 169.221 175.004C170.029 173.051 171.399 171.382 173.156 170.208C174.914 169.034 176.979 168.407 179.093 168.407C181.927 168.407 184.645 169.533 186.649 171.537C188.653 173.541 189.778 176.259 189.778 179.093Z" fill="#FFA199"/><path d="M189.778 205.807C189.778 207.92 189.152 209.986 187.978 211.743C186.803 213.501 185.135 214.87 183.182 215.679C181.23 216.488 179.081 216.699 177.008 216.287C174.935 215.875 173.031 214.857 171.537 213.363C170.042 211.868 169.025 209.964 168.613 207.892C168.2 205.819 168.412 203.67 169.221 201.718C170.029 199.765 171.399 198.096 173.156 196.922C174.914 195.748 176.979 195.121 179.093 195.121C181.923 195.133 184.635 196.262 186.636 198.264C188.638 200.265 189.767 202.976 189.778 205.807Z" fill="#FFA199"/><path d="M189.778 232.565C189.778 234.677 189.152 236.744 187.978 238.502C186.803 240.259 185.135 241.627 183.182 242.436C181.23 243.246 179.081 243.456 177.008 243.044C174.935 242.633 173.031 241.616 171.537 240.12C170.042 238.625 169.025 236.721 168.613 234.65C168.2 232.576 168.412 230.428 169.221 228.476C170.029 226.523 171.399 224.853 173.156 223.679C174.914 222.505 176.979 221.879 179.093 221.879C181.927 221.879 184.645 223.005 186.649 225.007C188.653 227.012 189.778 229.731 189.778 232.565Z" fill="#FF4C4C"/><path d="M216.536 72.193C216.536 74.3152 215.907 76.3895 214.728 78.1539C213.549 79.9183 211.873 81.2935 209.913 82.1055C207.952 82.9175 205.795 83.1301 203.714 82.716C201.632 82.3021 199.721 81.2803 198.22 79.7797C196.72 78.2792 195.698 76.3675 195.284 74.2863C194.87 72.2051 195.082 70.0477 195.894 68.0874C196.706 66.1268 198.082 64.4512 199.846 63.2721C201.61 62.0933 203.685 61.464 205.807 61.464C208.652 61.464 211.381 62.5944 213.393 64.6065C215.406 66.6187 216.536 69.3475 216.536 72.193Z" fill="#FFA199"/><path d="M216.536 98.9072C216.544 101.031 215.923 103.11 214.749 104.88C213.575 106.65 211.903 108.032 209.943 108.85C207.983 109.669 205.825 109.888 203.741 109.479C201.656 109.07 199.741 108.051 198.236 106.552C196.731 105.054 195.705 103.142 195.287 101.06C194.87 98.9774 195.08 96.818 195.89 94.8549C196.701 92.8919 198.076 91.2136 199.842 90.0328C201.607 88.8519 203.683 88.2215 205.807 88.2215C208.645 88.2215 211.367 89.3458 213.378 91.3486C215.389 93.3513 216.524 96.0692 216.536 98.9072Z" fill="#FFA199"/><path d="M216.536 125.621C216.544 127.745 215.923 129.824 214.749 131.594C213.575 133.364 211.903 134.746 209.943 135.564C207.983 136.383 205.825 136.602 203.741 136.193C201.656 135.784 199.741 134.765 198.236 133.267C196.731 131.768 195.705 129.856 195.287 127.774C194.87 125.691 195.08 123.532 195.89 121.569C196.701 119.606 198.076 117.928 199.842 116.747C201.607 115.566 203.683 114.936 205.807 114.936C208.645 114.936 211.367 116.06 213.378 118.063C215.389 120.065 216.524 122.783 216.536 125.621Z" fill="#FFA199"/><path d="M216.536 152.379C216.544 154.503 215.923 156.581 214.749 158.351C213.575 160.121 211.903 161.503 209.943 162.322C207.983 163.141 205.825 163.359 203.741 162.95C201.656 162.541 199.741 161.523 198.236 160.024C196.731 158.525 195.705 156.614 195.287 154.531C194.87 152.449 195.08 150.289 195.89 148.326C196.701 146.363 198.076 144.685 199.842 143.504C201.607 142.323 203.683 141.693 205.807 141.693C208.645 141.693 211.367 142.818 213.378 144.82C215.389 146.823 216.524 149.541 216.536 152.379Z" fill="#FFA199"/><path d="M216.536 179.093C216.544 181.217 215.923 183.295 214.749 185.065C213.575 186.835 211.903 188.217 209.943 189.036C207.983 189.855 205.825 190.074 203.741 189.664C201.656 189.255 199.741 188.237 198.236 186.738C196.731 185.239 195.705 183.328 195.287 181.245C194.87 179.163 195.08 177.003 195.89 175.04C196.701 173.077 198.076 171.399 199.842 170.218C201.607 169.038 203.683 168.407 205.807 168.407C208.645 168.407 211.367 169.532 213.378 171.534C215.389 173.537 216.524 176.255 216.536 179.093Z" fill="#FF4C4C"/><path d="M216.536 205.807C216.544 207.931 215.923 210.009 214.749 211.779C213.575 213.55 211.903 214.931 209.943 215.75C207.983 216.569 205.825 216.788 203.741 216.379C201.656 215.969 199.741 214.951 198.236 213.452C196.731 211.953 195.705 210.042 195.287 207.959C194.87 205.877 195.08 203.718 195.89 201.755C196.701 199.792 198.076 198.113 199.842 196.933C201.607 195.752 203.683 195.121 205.807 195.121C208.641 195.133 211.357 196.261 213.366 198.261C215.374 200.261 216.513 202.972 216.536 205.807Z" fill="#FF4C4C"/><path d="M216.536 232.565C216.544 234.688 215.923 236.766 214.749 238.537C213.575 240.306 211.903 241.69 209.943 242.508C207.983 243.326 205.825 243.546 203.741 243.136C201.656 242.728 199.741 241.708 198.236 240.21C196.731 238.71 195.705 236.8 195.287 234.717C194.87 232.634 195.08 230.475 195.89 228.512C196.701 226.55 198.076 224.871 199.842 223.69C201.607 222.509 203.683 221.879 205.807 221.879C208.645 221.879 211.367 223.003 213.378 225.005C215.389 227.009 216.524 229.727 216.536 232.565Z" fill="#FF4C4C"/><path d="M243.25 45.4357C243.25 47.549 242.622 49.6149 241.45 51.3722C240.275 53.1294 238.607 54.499 236.654 55.3079C234.701 56.1165 232.551 56.3282 230.48 55.9159C228.406 55.5036 226.503 54.486 225.01 52.9915C223.514 51.497 222.496 49.5932 222.084 47.5203C221.672 45.4474 221.883 43.299 222.692 41.3464C223.501 39.3939 224.871 37.7251 226.628 36.5509C228.386 35.3766 230.451 34.75 232.565 34.75C233.968 34.75 235.356 35.0264 236.654 35.5634C237.95 36.1003 239.127 36.8875 240.12 37.8797C241.113 38.872 241.9 40.0499 242.436 41.3464C242.974 42.643 243.25 44.0323 243.25 45.4357Z" fill="#FFA199"/><path d="M243.25 72.193C243.241 74.3047 242.607 76.3664 241.427 78.1178C240.248 79.8694 238.578 81.2323 236.623 82.0342C234.67 82.8364 232.522 83.042 230.453 82.6247C228.384 82.2075 226.483 81.1863 224.994 79.6903C223.503 78.194 222.49 76.2899 222.081 74.2184C221.672 72.1468 221.886 70.0004 222.696 68.0506C223.506 66.1006 224.875 64.4341 226.633 63.262C228.388 62.0897 230.453 61.464 232.565 61.464C233.971 61.464 235.365 61.7418 236.663 62.2816C237.964 62.8213 239.143 63.6122 240.136 64.6092C241.129 65.606 241.914 66.789 242.45 68.0905C242.983 69.3919 243.257 70.7862 243.25 72.193Z" fill="#FFA199"/><path d="M243.25 98.9072C243.25 101.02 242.622 103.086 241.45 104.844C240.275 106.601 238.607 107.971 236.654 108.779C234.701 109.588 232.551 109.8 230.48 109.387C228.406 108.975 226.503 107.957 225.01 106.463C223.514 104.969 222.496 103.065 222.084 100.992C221.672 98.9191 221.883 96.7705 222.692 94.818C223.501 92.8655 224.871 91.1966 226.628 90.0225C228.386 88.8484 230.451 88.2215 232.565 88.2215C233.968 88.2215 235.356 88.4979 236.654 89.0349C237.95 89.5721 239.127 90.359 240.12 91.3513C241.113 92.3435 241.9 93.5214 242.436 94.818C242.974 96.1145 243.25 97.504 243.25 98.9072Z" fill="#FFA199"/><path d="M243.25 125.621C243.25 127.735 242.622 129.801 241.45 131.558C240.275 133.315 238.607 134.685 236.654 135.493C234.701 136.302 232.551 136.514 230.48 136.102C228.406 135.689 226.503 134.671 225.01 133.177C223.514 131.683 222.496 129.779 222.084 127.706C221.672 125.633 221.883 123.484 222.692 121.532C223.501 119.579 224.871 117.911 226.628 116.736C228.386 115.562 230.451 114.936 232.565 114.936C233.968 114.936 235.356 115.212 236.654 115.749C237.95 116.286 239.127 117.073 240.12 118.065C241.113 119.058 241.9 120.236 242.436 121.532C242.974 122.828 243.25 124.218 243.25 125.621Z" fill="#FFA199"/><path d="M243.25 152.379C243.25 154.492 242.622 156.558 241.45 158.315C240.275 160.073 238.607 161.442 236.654 162.251C234.701 163.06 232.551 163.271 230.48 162.859C228.406 162.447 226.503 161.429 225.01 159.935C223.514 158.44 222.496 156.536 222.084 154.463C221.672 152.391 221.883 150.242 222.692 148.289C223.501 146.337 224.871 144.668 226.628 143.494C228.386 142.32 230.451 141.693 232.565 141.693C233.968 141.693 235.356 141.969 236.654 142.506C237.95 143.044 239.127 143.831 240.12 144.823C241.113 145.815 241.9 146.993 242.436 148.289C242.974 149.586 243.25 150.976 243.25 152.379Z" fill="#FF4C4C"/><path d="M243.25 179.093C243.25 181.206 242.622 183.272 241.45 185.029C240.275 186.787 238.607 188.156 236.654 188.965C234.701 189.774 232.551 189.985 230.48 189.573C228.406 189.161 226.503 188.143 225.01 186.649C223.514 185.154 222.496 183.25 222.084 181.178C221.672 179.105 221.883 176.956 222.692 175.004C223.501 173.051 224.871 171.382 226.628 170.208C228.386 169.034 230.451 168.407 232.565 168.407C233.968 168.407 235.356 168.684 236.654 169.221C237.95 169.758 239.127 170.545 240.12 171.537C241.113 172.529 241.9 173.707 242.436 175.004C242.974 176.3 243.25 177.69 243.25 179.093Z" fill="#FF4C4C"/><path d="M243.25 205.807C243.25 207.92 242.622 209.986 241.45 211.743C240.275 213.501 238.607 214.87 236.654 215.679C234.701 216.488 232.551 216.699 230.48 216.287C228.406 215.875 226.503 214.857 225.01 213.363C223.514 211.868 222.496 209.964 222.084 207.892C221.672 205.819 221.883 203.67 222.692 201.718C223.501 199.765 224.871 198.096 226.628 196.922C228.386 195.748 230.451 195.121 232.565 195.121C235.394 195.133 238.107 196.262 240.107 198.264C242.109 200.265 243.239 202.976 243.25 205.807Z" fill="#FF4C4C"/><path d="M243.25 232.565C243.25 234.677 242.622 236.744 241.45 238.502C240.275 240.259 238.607 241.627 236.654 242.436C234.701 243.246 232.551 243.456 230.48 243.044C228.406 242.633 226.503 241.616 225.01 240.12C223.514 238.625 222.496 236.721 222.084 234.65C221.672 232.576 221.883 230.428 222.692 228.476C223.501 226.523 224.871 224.853 226.628 223.679C228.386 222.505 230.451 221.879 232.565 221.879C233.968 221.879 235.356 222.155 236.654 222.692C237.95 223.229 239.127 224.016 240.12 225.007C241.113 226.001 241.9 227.18 242.436 228.476C242.974 229.771 243.25 231.161 243.25 232.565Z" fill="#FF4C4C"/></svg>